<?xml version="1.0" encoding="UTF-8" standalone="no" ?>
<!DOCTYPE svg PUBLIC "-//W3C//DTD SVG 1.1//EN" "http://www.w3.org/Graphics/SVG/1.1/DTD/svg11.dtd">
<svg xmlns="http://www.w3.org/2000/svg" xmlns:xlink="http://www.w3.org/1999/xlink" version="1.1" width="240" height="240" viewBox="0 0 1080 1080" xml:space="preserve">
<desc>Created with Fabric.js 5.2.4</desc>
<defs>
</defs>
<rect x="0" y="0" width="100%" height="100%" fill="transparent"></rect>
<g transform="matrix(1 0 0 1 540 540)" id="902cb102-f6e8-497d-b596-55384c9c8e64"  >
<rect style="stroke: none; stroke-width: 1; stroke-dasharray: none; stroke-linecap: butt; stroke-dashoffset: 0; stroke-linejoin: miter; stroke-miterlimit: 4; fill: rgb(255,255,255); fill-rule: nonzero; opacity: 1; visibility: hidden;" vector-effect="non-scaling-stroke"  x="-540" y="-540" rx="0" ry="0" width="240" height="" />
</g>
<g transform="matrix(1 0 0 1 540 540)" id="99984ff5-b128-4039-a5ff-cd675187794a"  >
</g>
<g transform="matrix(1 0 0 1 341.79 538.54)"  >
<path style="stroke: none; stroke-width: 1; stroke-dasharray: none; stroke-linecap: butt; stroke-dashoffset: 0; stroke-linejoin: miter; stroke-miterlimit: 4; fill: rgb(4,4,4); fill-rule: nonzero; opacity: 1;" vector-effect="non-scaling-stroke"  transform=" translate(-302.79, -99.54)" d="M 313.258972 108.030746 C 311.976288 110.512398 311.168121 112.99118 310.150696 116.111877 C 313.700043 116.315956 316.109039 116.454468 318.982483 116.619682 C 319.134033 119.215012 319.282806 121.762352 319.449127 124.610573 C 322.140564 124.734612 324.580688 124.847069 327.407501 124.977341 C 327.407501 127.502922 327.407501 129.921249 327.407501 132.794159 C 330.353577 132.794159 332.919617 132.794159 335.806488 132.794159 C 335.946014 135.79921 336.066132 138.386078 336.205078 141.378418 C 338.768951 141.378418 341.196259 141.378418 343.894226 141.378418 C 343.894226 147.027451 343.894226 152.261688 343.894226 157.753448 C 338.673645 157.753448 333.437225 157.753448 327.876404 157.753448 C 327.876404 155.151306 327.876404 152.713028 327.876404 149.853561 C 325.168365 149.692322 322.74881 149.548264 319.822083 149.374008 C 319.649323 146.856659 319.473083 144.289108 319.273651 141.383179 C 316.669708 141.383179 314.224854 141.383179 311.230377 141.383179 C 311.230377 138.511215 311.230377 135.967957 311.230377 133.088531 C 308.268341 133.088531 305.827637 133.088531 303.090332 133.088531 C 302.949036 130.181992 302.823395 127.598129 302.686707 124.786461 C 300.067841 124.65229 297.631256 124.527458 294.927307 124.388924 C 294.786682 121.765701 294.655914 119.325737 294.501923 116.453041 C 291.832245 116.291107 289.271484 116.13578 286.425385 115.963142 C 286.307373 113.362701 286.196899 110.928497 286.076019 108.264717 C 283.507111 108.264717 281.061157 108.264717 278.1763 108.264717 C 278.1763 124.542557 278.1763 140.940369 278.1763 157.670837 C 272.507416 157.670837 267.262329 157.670837 261.665955 157.670837 C 261.665955 119.096504 261.665955 80.382698 261.665955 41.330574 C 283.465393 41.330574 305.332092 41.330574 327.479858 41.330574 C 327.61377 43.983898 327.744965 46.583862 327.891693 49.491211 C 330.530609 49.615665 332.96582 49.730511 335.874695 49.867695 C 335.874695 52.458523 335.874695 55.003025 335.874695 57.895203 C 338.762268 57.895203 341.200867 57.895203 343.90506 57.895203 C 343.90506 68.980164 343.90506 79.716476 343.90506 90.819992 C 341.543182 90.819992 339.120331 90.819992 336.228882 90.819992 C 336.228882 93.738968 336.228882 96.309792 336.228882 99.2388 C 333.325378 99.2388 330.876831 99.2388 327.935913 99.2388 C 327.935913 102.14933 327.935913 104.717865 327.935913 108.027893 C 322.886261 108.027893 318.309875 108.027893 313.258972 108.030746 M 327.859406 72.599274 C 327.859406 70.510483 327.859406 68.4217 327.859406 65.968971 C 324.714905 65.968971 322.288483 65.968971 319.7323 65.968971 C 319.585876 63.177021 319.458557 60.749226 319.32605 58.22226 C 305.483765 58.22226 291.915833 58.22226 278.135986 58.22226 C 278.135986 69.132614 278.135986 79.844505 278.135986 90.709198 C 291.963287 90.709198 305.639984 90.709198 319.391388 90.709198 C 319.515289 87.995743 319.626068 85.569275 319.753174 82.78569 C 322.564514 82.78569 324.994598 82.78569 327.859406 82.78569 C 327.859406 79.464661 327.859406 76.508629 327.859406 72.599274 z" stroke-linecap="round" />
</g>
<g transform="matrix(1 0 0 1 241.77 538.34)"  >
<path style="stroke: none; stroke-width: 1; stroke-dasharray: none; stroke-linecap: butt; stroke-dashoffset: 0; stroke-linejoin: miter; stroke-miterlimit: 4; fill: rgb(3,3,3); fill-rule: nonzero; opacity: 1;" vector-effect="non-scaling-stroke"  transform=" translate(-202.77, -99.34)" d="M 168.116333 40.99482 C 188.075928 40.99482 207.548904 40.99482 227.496185 40.99482 C 227.496185 43.767391 227.496185 46.349407 227.496185 49.464775 C 230.491638 49.464775 233.030533 49.464775 235.866516 49.464775 C 235.866516 52.439228 235.866516 54.886501 235.866516 57.865105 C 238.699097 57.865105 241.251419 57.865105 243.98143 57.865105 C 243.98143 85.782333 243.98143 113.169075 243.98143 140.917984 C 241.43129 140.917984 239.005692 140.917984 236.253708 140.917984 C 236.106461 143.837006 235.976166 146.42041 235.837021 149.179016 C 233.239502 149.299606 230.772232 149.414154 227.83342 149.550598 C 227.83342 152.221725 227.83342 154.810089 227.83342 157.695053 C 205.499405 157.695053 183.640869 157.695053 161.552643 157.695053 C 161.552643 118.858719 161.552643 80.150398 161.552643 40.99482 C 163.722504 40.99482 165.676132 40.99482 168.116333 40.99482 M 190.509964 140.997253 C 200.109116 140.997253 209.708267 140.997253 219.378983 140.997253 C 219.508408 138.049515 219.615814 135.603622 219.728577 133.03566 C 222.484512 132.906891 224.926956 132.79277 227.524811 132.671402 C 227.524811 110.40992 227.524811 88.402679 227.524811 66.026947 C 224.758835 66.026947 222.324966 66.026947 219.73761 66.026947 C 219.591614 63.228619 219.46434 60.78923 219.338791 58.382626 C 205.407501 58.382626 191.70813 58.382626 178.252228 58.382626 C 178.252228 86.105217 178.252228 113.467819 178.252228 140.997253 C 182.224945 140.997253 185.870255 140.997253 190.509964 140.997253 z" stroke-linecap="round" />
</g>
<g transform="matrix(1 0 0 1 639.78 538.52)"  >
<path style="stroke: none; stroke-width: 1; stroke-dasharray: none; stroke-linecap: butt; stroke-dashoffset: 0; stroke-linejoin: miter; stroke-miterlimit: 4; fill: rgb(4,4,4); fill-rule: nonzero; opacity: 1;" vector-effect="non-scaling-stroke"  transform=" translate(-600.78, -99.52)" d="M 609.069702 118.861992 C 608.239441 117.688942 607.491577 116.562424 606.565796 116.389732 C 604.834167 116.066711 602.99939 116.296852 600.823792 116.296852 C 600.823792 113.425514 600.823792 110.988487 600.823792 108.295486 C 598.012207 108.171242 595.570068 108.063332 592.797485 107.940811 C 592.797485 105.341805 592.797485 102.891731 592.797485 100.126129 C 589.890381 99.996521 587.303406 99.881187 584.4599 99.754417 C 584.293884 96.948669 584.141052 94.366364 583.979797 91.641739 C 581.239929 91.641739 578.810974 91.641739 575.968262 91.641739 C 575.968262 113.708168 575.968262 135.620499 575.968262 157.767319 C 570.314697 157.767319 565.071472 157.767319 559.574585 157.767319 C 559.574585 118.910957 559.574585 80.189941 559.574585 41.231178 C 564.98822 41.231178 570.227051 41.231178 575.921021 41.231178 C 575.921021 49.435764 575.921021 57.505848 575.921021 65.916817 C 578.7901 65.916817 581.215515 65.916817 583.996338 65.916817 C 583.996338 68.686348 583.996338 71.112183 583.996338 73.966621 C 586.732056 74.117691 589.147888 74.251099 592.13446 74.416031 C 592.275757 76.915596 592.419739 79.462418 592.584106 82.370743 C 595.312134 82.581017 597.884094 82.779266 600.594604 82.988197 C 600.715088 85.604042 600.827698 88.04998 600.954468 90.802765 C 603.578796 90.802765 606.024536 90.802765 608.835144 90.802765 C 608.835144 93.529076 608.835144 95.949455 608.835144 98.931976 C 611.729797 98.931976 614.274109 98.931976 617.197815 98.931976 C 617.197815 101.911148 617.197815 104.350342 617.197815 107.150604 C 620.130737 107.150604 622.692017 107.150604 625.704834 107.150604 C 625.704834 85.283829 625.704834 63.385944 625.704834 41.242714 C 631.377502 41.242714 636.606201 41.242714 641.986877 41.242714 C 641.986877 80.161186 641.986877 118.87867 641.986877 157.801117 C 636.689697 157.801117 631.587402 157.801117 626.007324 157.801117 C 626.007324 149.753571 626.007324 141.69429 626.007324 133.301895 C 623.001526 133.126633 620.439941 132.97728 617.710144 132.818115 C 617.586243 130.158112 617.472229 127.710899 617.342041 124.916946 C 614.715088 124.916946 612.272888 124.916946 609.071838 124.916946 C 609.071838 122.825806 609.071838 121.082397 609.069702 118.861992 z" stroke-linecap="round" />
</g>
<g transform="matrix(1 0 0 1 738.76 538.47)"  >
<path style="stroke: none; stroke-width: 1; stroke-dasharray: none; stroke-linecap: butt; stroke-dashoffset: 0; stroke-linejoin: miter; stroke-miterlimit: 4; fill: rgb(2,2,2); fill-rule: nonzero; opacity: 1;" vector-effect="non-scaling-stroke"  transform=" translate(-699.76, -99.47)" d="M 683.235352 54.149918 C 682.932434 46.48378 688.882629 51.854221 691.51532 49.039444 C 691.51532 47.012482 691.51532 44.24894 691.51532 41.240448 C 697.154663 41.240448 702.403992 41.240448 707.884827 41.240448 C 707.884827 43.999264 707.884827 46.61702 707.884827 49.771851 C 710.643677 49.771851 713.196167 49.771851 716.178345 49.771851 C 716.178345 52.696613 716.178345 55.100212 716.178345 57.840538 C 719.044128 57.840538 721.484741 57.840538 724.362793 57.840538 C 724.362793 60.572376 724.362793 62.975166 724.362793 65.820511 C 727.358276 65.820511 729.929688 65.820511 732.896362 65.820511 C 732.896362 68.987717 732.896362 71.731461 732.896362 74.830528 C 735.706177 74.830528 738.129395 74.830528 740.867676 74.830528 C 740.867676 102.591446 740.867676 129.996353 740.867676 157.703018 C 735.796387 157.703018 730.564575 157.703018 724.873047 157.703018 C 724.873047 146.932983 724.873047 136.200577 724.873047 125.251801 C 708.151489 125.251801 691.880798 125.251801 675.161377 125.251801 C 675.161377 135.900543 675.161377 146.63179 675.161377 157.680756 C 669.473328 157.680756 664.223999 157.680756 658.647217 157.680756 C 658.647217 130.394531 658.647217 102.990906 658.647217 75.231544 C 661.196594 75.090881 663.76416 74.949219 666.588135 74.793411 C 666.588135 71.969276 666.588135 69.347412 666.588135 66.197418 C 669.382446 66.197418 671.927185 66.197418 674.864502 66.197418 C 674.864502 63.271286 674.864502 60.859509 674.864502 59.470646 C 677.226746 55.734398 683.374146 61.697502 683.235352 54.149918 M 677.575684 83.020775 C 676.691589 83.810471 675.061646 84.580261 675.039917 85.392975 C 674.841858 92.814407 674.923462 100.243309 674.923462 107.741791 C 691.762146 107.741791 708.130615 107.741791 724.585815 107.741791 C 724.585815 99.431145 724.585815 91.381172 724.585815 82.833443 C 721.768127 82.833443 719.225403 82.833443 716.407104 82.833443 C 716.407104 80.037643 716.407104 77.744629 716.407104 75.228035 C 713.563171 75.08577 710.989319 74.957016 708.021606 74.808563 C 708.021606 71.821274 708.021606 69.084877 708.021606 66.219292 C 702.354736 66.219292 697.106445 66.219292 691.420654 66.219292 C 691.420654 69.148056 691.420654 71.887634 691.420654 74.837746 C 688.430786 74.980522 685.863708 75.103111 683.088623 75.235626 C 683.088623 77.942299 683.088623 80.227036 683.088623 82.806877 C 681.42218 82.884941 679.976135 82.952682 677.575684 83.020775 z" stroke-linecap="round" />
</g>
<g transform="matrix(1 0 0 1 539.8 538.49)"  >
<path style="stroke: none; stroke-width: 1; stroke-dasharray: none; stroke-linecap: butt; stroke-dashoffset: 0; stroke-linejoin: miter; stroke-miterlimit: 4; fill: rgb(4,4,4); fill-rule: nonzero; opacity: 1;" vector-effect="non-scaling-stroke"  transform=" translate(-500.8, -99.49)" d="M 475.927795 147.965759 C 475.927795 151.436569 475.927795 154.413635 475.927795 157.697342 C 470.445496 157.697342 465.194641 157.697342 459.629822 157.697342 C 459.629822 119.040764 459.629822 80.301277 459.629822 41.277363 C 481.440552 41.277363 503.201538 41.277363 525.380188 41.277363 C 525.56665 43.876656 525.762512 46.606678 525.980835 49.65065 C 528.652283 49.65065 531.105164 49.65065 533.833984 49.65065 C 533.833984 52.428169 533.833984 54.873825 533.833984 57.84576 C 536.650208 57.84576 539.211914 57.84576 541.96936 57.84576 C 541.96936 69.108582 541.96936 79.84774 541.96936 90.951584 C 539.399292 90.951584 536.973083 90.951584 534.222961 90.951584 C 534.08551 93.870476 533.963989 96.450134 533.835266 99.183365 C 531.189758 99.309792 528.727295 99.427467 525.796753 99.567513 C 525.796753 102.280342 525.796753 104.868927 525.796753 107.836418 C 509.076874 107.836418 492.824799 107.836418 475.927795 107.836418 C 475.927795 121.298676 475.927795 134.385361 475.927795 147.965759 M 525.848694 67.92556 C 523.185242 67.029861 520.52179 66.134155 517.696411 65.184021 C 517.571167 63.031055 517.43158 60.631874 517.295166 58.287014 C 503.318695 58.287014 489.759308 58.287014 476.177582 58.287014 C 476.177582 69.267502 476.177582 79.981407 476.177582 90.819633 C 490.012268 90.819633 503.591797 90.819633 517.338074 90.819633 C 517.475891 88.206734 517.604858 85.761375 517.743225 83.137138 C 520.462036 82.957985 523.023376 82.789215 525.859131 82.602364 C 525.859131 77.783234 525.859131 73.318031 525.848694 67.92556 z" stroke-linecap="round" />
</g>
<g transform="matrix(1 0 0 1 440.66 538.47)"  >
<path style="stroke: none; stroke-width: 1; stroke-dasharray: none; stroke-linecap: butt; stroke-dashoffset: 0; stroke-linejoin: miter; stroke-miterlimit: 4; fill: rgb(1,1,1); fill-rule: nonzero; opacity: 1;" vector-effect="non-scaling-stroke"  transform=" translate(-401.66, -99.47)" d="M 376.987701 56.796654 C 376.958496 51.355087 376.958496 46.397987 376.958496 41.223774 C 393.552795 41.223774 409.806946 41.223774 426.365692 41.223774 C 426.365692 46.629486 426.365692 52.033962 426.365692 57.868698 C 421.093353 57.868698 415.847626 57.868698 410.329681 57.868698 C 410.329681 85.670731 410.329681 113.049393 410.329681 140.827484 C 415.545959 140.827484 420.804169 140.827484 426.36322 140.827484 C 426.36322 146.620163 426.36322 152.023605 426.36322 157.716583 C 410.080536 157.716583 393.843292 157.716583 377.279236 157.716583 C 377.279236 152.449997 377.279236 147.048172 377.279236 141.093704 C 382.458038 141.093704 387.837646 141.093704 393.379333 141.093704 C 393.379333 113.160728 393.379333 85.776009 393.379333 58.4244 C 387.74881 58.030983 382.382874 57.656052 376.987701 56.796654 z" stroke-linecap="round" />
</g>
<g transform="matrix(1 0 0 1 837.79 538.52)"  >
<path style="stroke: none; stroke-width: 1; stroke-dasharray: none; stroke-linecap: butt; stroke-dashoffset: 0; stroke-linejoin: miter; stroke-miterlimit: 4; fill: rgb(1,1,1); fill-rule: nonzero; opacity: 1;" vector-effect="non-scaling-stroke"  transform=" translate(-798.79, -99.52)" d="M 825.995422 58.020538 C 819.530396 58.020538 813.563843 58.020538 807.216248 58.020538 C 807.216248 91.342148 807.216248 124.383568 807.216248 157.711731 C 801.607056 157.711731 796.378113 157.711731 790.706665 157.711731 C 790.706665 124.641945 790.706665 91.613907 790.706665 58.204269 C 779.529846 58.204269 768.777222 58.204269 757.680908 58.204269 C 757.680908 52.445515 757.680908 47.054153 757.680908 41.328575 C 784.969116 41.328575 812.318848 41.328575 839.903687 41.328575 C 839.903687 46.742073 839.903687 52.13895 839.903687 58.020538 C 835.387878 58.020538 830.940918 58.020538 825.995422 58.020538 z" stroke-linecap="round" />
</g>
</svg>